<svg xmlns="http://www.w3.org/2000/svg" x="0px" y="0px" width="500" height="500" viewBox="0,0,256,256">
<g fill="#ffffff" fill-rule="nonzero" stroke="none" stroke-width="1" stroke-linecap="butt" stroke-linejoin="miter" stroke-miterlimit="10" stroke-dasharray="" stroke-dashoffset="0" font-family="none" font-weight="none" font-size="none" text-anchor="none" style="mix-blend-mode: normal"><g transform="scale(5.12,5.12)"><path d="M29,14.222l16,-14.222l-10.667,17.778z"></path><path d="M4,50h-4c0,-31.521 17.207,-42.25 25.476,-47.406l3.524,-2.202v10.596l17.199,12.622c1.875,1.202 3.172,3.057 3.658,5.231c0.488,2.187 0.096,4.433 -1.104,6.324c-1.201,1.892 -3.066,3.202 -5.253,3.691c-4.048,0.905 -8.335,-1.34 -9.958,-4.943l-14.666,-0.917l0.25,-3.992l17.499,1.094l0.328,1.466c0.519,2.321 3.223,3.946 5.675,3.389c2.362,-0.527 3.854,-2.878 3.326,-5.239c-0.257,-1.15 -0.949,-2.13 -1.948,-2.758l-0.119,-0.081l-18.887,-13.862v-5.381c-8.499,5.55 -21,15.923 -21,42.368z"></path><rect x="42" y="28" width="5" height="4"></rect><circle cx="30" cy="22" r="2"></circle><path d="M31,50h-4v-1.332c-3.897,-5.482 -4.09,-14.554 -2.94,-19.153l3.881,0.971c-0.836,3.343 -0.936,11.819 2.621,16.266l0.438,0.547z"></path><path d="M49.857,28.841c-0.064,-0.286 -0.144,-0.566 -0.235,-0.841h-4.484c0.387,0.501 0.673,1.077 0.815,1.713c0.176,0.788 0.11,1.569 -0.121,2.287h4.12c0.166,-1.036 0.141,-2.104 -0.095,-3.159z"></path><path d="M28.19,29.571l-4.077,-0.255l-0.054,0.199c-0.263,1.053 -0.451,2.347 -0.545,3.771l3.999,0.25c0.077,-1.201 0.226,-2.247 0.416,-3.01z"></path></g></g>
</svg>